<svg width="153" height="153" viewBox="0 0 153 153" fill="none" xmlns="http://www.w3.org/2000/svg">
<path d="M153 0H0V153H153V0Z" fill="#CD412B"/>
<path d="M50.068 68.9898L17.6213 63.5929V96.1046L50.068 90.6426V68.9898Z" fill="#1E2020"/>
<path d="M66.3239 68.9899H55.465V90.6427H66.3239V68.9899Z" fill="#1E2020"/>
<path d="M90.7076 50.068L96.1045 17.5563H63.5928L68.9898 50.068H90.7076Z" fill="#1E2020"/>
<path d="M90.6426 55.465H68.9898V66.3239H90.6426V55.465Z" fill="#1E2020"/>
<path d="M79.8982 72.1681L72.2198 79.8464L79.8982 87.5248L87.5765 79.8464L79.8982 72.1681Z" fill="#1E2020"/>
<path d="M93.2435 108.589L112.36 135.379L135.379 112.36L108.589 93.2435L93.2435 108.589Z" fill="#1E2020"/>
<path d="M97.108 81.7492L81.7973 97.0598L89.4756 104.738L104.786 89.4275L97.108 81.7492Z" fill="#1E2020"/>
</svg>
