<svg width="256" height="256" viewBox="0 0 256 256" fill="none" xmlns="http://www.w3.org/2000/svg">
<g filter="url(#filter0_d)">
<circle cx="128" cy="124" r="124" fill="#232323"/>
</g>
<g filter="url(#filter1_d)">
<path d="M203.044 18.0923C201.348 18.8554 199.695 20.424 198.72 22.2045C197.999 23.5611 197.957 25.172 197.829 45.3511L197.702 67.0564L200.076 68.1586C203.086 69.6 207.114 73.3306 208.724 76.1286C211.31 80.707 211.31 80.7918 211.31 105.295C211.31 129.841 211.183 131.621 208.724 138.955C205.587 148.324 198.253 158.668 191.089 163.882C190.072 164.603 189.266 165.324 189.266 165.493C189.266 166.214 191.089 166.765 194.353 167.019C196.219 167.147 197.745 167.401 197.745 167.571C197.745 168.63 196.727 173.336 195.964 175.625C192.488 186.478 183.543 195.762 172.902 199.662C155.14 206.064 135.045 197.754 126.736 180.5C124.956 176.727 123.133 170.665 123.133 168.334V167.147H129.492C133.01 167.147 135.851 167.062 135.851 166.977C135.851 166.85 134.833 165.748 133.604 164.518C132.374 163.289 127.33 157.269 122.412 151.207C117.494 145.102 113.128 140.015 112.746 139.845C111.856 139.506 109.397 139.506 108.507 139.845C108.126 140.015 103.886 145.017 99.0534 150.995C94.2206 156.972 89.1758 162.95 87.8616 164.306C86.5051 165.663 85.4028 166.85 85.4028 166.977C85.4028 167.062 88.328 167.147 91.9314 167.147H98.5023L98.7567 169.563C98.8839 170.92 99.3926 173.93 99.8165 176.261C105.37 205.258 130.509 226.031 160.142 226.073C171.588 226.073 181.55 223.487 191.216 217.976C208.343 208.141 220.086 189.869 221.866 170.326L222.121 167.359L225.47 167.062C229.667 166.68 232.168 165.493 233.694 163.204L234.839 161.508L234.966 149.172C235.051 142.389 234.966 136.2 234.839 135.437C234.711 134.673 233.991 133.359 233.228 132.511C231.278 130.307 229.073 129.417 225.427 129.417H222.333L222.248 76.5101L222.121 23.6458L221.103 21.8653C220.51 20.8479 219.323 19.5337 218.39 18.8978C216.737 17.7532 216.482 17.7108 210.505 17.626C205.969 17.5412 203.976 17.6684 203.044 18.0923Z" fill="#690A0A"/>
<path d="M71.6251 52.2188C70.65 52.6428 69.3783 53.6178 68.7 54.3809C67.7249 55.5679 62.5106 65.3607 62.5106 66.039C62.5106 66.1662 84.1735 66.251 110.627 66.251C137.08 66.251 158.743 66.1662 158.743 66.039C158.743 65.1911 153.062 54.8048 152.087 53.8722C149.374 51.2862 151.239 51.4134 110.542 51.4134C75.3557 51.4134 73.236 51.4558 71.6251 52.2188Z" fill="#690A0A"/>
<path d="M25.035 75.1535C22.3642 76.2134 19.9902 78.5026 18.8456 81.1734C17.9554 83.2506 17.9554 83.5898 18.1249 106.864C18.2521 129.078 18.3369 130.646 19.1424 133.444C24.3567 151.546 37.8801 163.543 56.2364 166.511C59.2463 166.977 66.2411 166.765 69.1239 166.087C73.236 165.154 77.8145 162.695 80.994 159.813C82.4353 158.456 87.6073 152.521 92.4401 146.544C97.2305 140.609 101.936 135.097 102.869 134.292C107.108 130.689 113.933 130.604 118.215 134.165C119.105 134.885 123.811 140.397 128.686 146.374C133.561 152.394 138.776 158.414 140.26 159.813C145.432 164.561 151.706 166.808 159.591 166.765C179.6 166.68 196.473 153.411 202.111 133.317C203.001 130.18 203.001 129.162 203.171 106.694C203.298 84.5224 203.256 83.293 202.493 81.4701C201.39 78.9265 199.737 77.0612 197.363 75.6623L195.413 74.5176L111.263 74.4329C29.02 74.3481 27.0699 74.3481 25.035 75.1535Z" fill="#690A0A"/>
</g>
<defs>
<filter id="filter0_d" x="0" y="0" width="256" height="256" filterUnits="userSpaceOnUse" color-interpolation-filters="sRGB">
<feFlood flood-opacity="0" result="BackgroundImageFix"/>
<feColorMatrix in="SourceAlpha" type="matrix" values="0 0 0 0 0 0 0 0 0 0 0 0 0 0 0 0 0 0 127 0"/>
<feOffset dy="4"/>
<feGaussianBlur stdDeviation="2"/>
<feColorMatrix type="matrix" values="0 0 0 0 0 0 0 0 0 0 0 0 0 0 0 0 0 0 0.5 0"/>
<feBlend mode="normal" in2="BackgroundImageFix" result="effect1_dropShadow"/>
<feBlend mode="normal" in="SourceGraphic" in2="effect1_dropShadow" result="shape"/>
</filter>
<filter id="filter1_d" x="14.0375" y="17.6012" width="224.962" height="216.472" filterUnits="userSpaceOnUse" color-interpolation-filters="sRGB">
<feFlood flood-opacity="0" result="BackgroundImageFix"/>
<feColorMatrix in="SourceAlpha" type="matrix" values="0 0 0 0 0 0 0 0 0 0 0 0 0 0 0 0 0 0 127 0"/>
<feOffset dy="4"/>
<feGaussianBlur stdDeviation="2"/>
<feColorMatrix type="matrix" values="0 0 0 0 0 0 0 0 0 0 0 0 0 0 0 0 0 0 1 0"/>
<feBlend mode="darken" in2="BackgroundImageFix" result="effect1_dropShadow"/>
<feBlend mode="normal" in="SourceGraphic" in2="effect1_dropShadow" result="shape"/>
</filter>
</defs>
</svg>
