<svg width="138" height="115" viewBox="0 0 138 115" fill="none" xmlns="http://www.w3.org/2000/svg">
<path d="M138 55.3433V0.89318C138 0.0561414 136.951 -0.326909 136.434 0.339884L77.8042 74.6803C77.7004 74.8111 77.6353 74.9691 77.6163 75.1359C77.5974 75.3028 77.6254 75.4716 77.697 75.623C77.7687 75.7744 77.8812 75.9021 78.0214 75.9913C78.1617 76.0806 78.324 76.1277 78.4895 76.1274H120.853C122 76.1274 123.077 75.6024 123.79 74.6945L137.175 57.7267C137.706 57.0457 138 56.2087 138 55.3433ZM0.825175 57.7267L44.8671 113.567C45.5804 114.475 46.6573 115 47.8042 115H90.1678C90.9091 115 91.3147 114.135 90.8532 113.553L1.56643 0.339884C1.04895 -0.312722 0 0.0561414 0 0.89318V55.3433C0 56.2087 0.293706 57.0457 0.825175 57.7267Z" fill="white"/>
</svg>
