<svg width="183" height="128" viewBox="0 0 183 128" fill="none" xmlns="http://www.w3.org/2000/svg">
<path d="M179.055 19.9855C176.96 12.1309 170.764 5.93455 162.88 3.81091C148.625 1.38716e-06 91.4327 0 91.4327 0C91.4327 0 34.2691 1.38716e-06 19.9855 3.81091C12.1309 5.90546 5.93455 12.1018 3.81091 19.9855C0 34.24 0 64 0 64C0 64 0 93.76 3.81091 108.015C5.90545 115.869 12.1018 122.065 19.9855 124.189C34.2691 128 91.4327 128 91.4327 128C91.4327 128 148.625 128 162.88 124.189C170.735 122.095 176.931 115.898 179.055 108.015C182.865 93.76 182.865 64 182.865 64C182.865 64 182.865 34.24 179.055 19.9855Z" fill="#FF0000"/>
<path d="M73.1637 91.4326L120.669 63.9999L73.1637 36.5671V91.4326Z" fill="white"/>
</svg>
